<mxfile host="app.diagrams.net" modified="2024-05-20T07:11:50.382Z" agent="Mozilla/5.0 (Windows NT 10.0; Win64; x64) AppleWebKit/537.36 (KHTML, like Gecko) Chrome/124.0.0.0 Safari/537.36 Edg/124.0.0.0" etag="RY4gNkQJdhemnThUC2eN" version="24.4.0" type="github">
  <diagram name="第 1 页" id="h1G0qxPrOv25gMmqZQjd">
    <mxGraphModel dx="1371" dy="759" grid="1" gridSize="10" guides="1" tooltips="1" connect="1" arrows="1" fold="1" page="1" pageScale="1" pageWidth="827" pageHeight="1169" background="#ffffff" math="0" shadow="0">
      <root>
        <mxCell id="0" />
        <mxCell id="1" parent="0" />
        <mxCell id="4eEoRIjLkNq0XFfyR3C2-62" value="" style="endArrow=none;dashed=1;html=1;rounded=0;" edge="1" parent="1">
          <mxGeometry width="50" height="50" relative="1" as="geometry">
            <mxPoint x="160" y="519.58" as="sourcePoint" />
            <mxPoint x="1120" y="519.58" as="targetPoint" />
          </mxGeometry>
        </mxCell>
        <mxCell id="4eEoRIjLkNq0XFfyR3C2-2" value="" style="endArrow=none;dashed=1;html=1;rounded=0;" edge="1" parent="1">
          <mxGeometry width="50" height="50" relative="1" as="geometry">
            <mxPoint x="160" y="200" as="sourcePoint" />
            <mxPoint x="1120" y="200" as="targetPoint" />
          </mxGeometry>
        </mxCell>
        <mxCell id="4eEoRIjLkNq0XFfyR3C2-17" value="" style="endArrow=none;dashed=1;html=1;rounded=0;" edge="1" parent="1">
          <mxGeometry width="50" height="50" relative="1" as="geometry">
            <mxPoint x="160" y="360" as="sourcePoint" />
            <mxPoint x="1120" y="360" as="targetPoint" />
          </mxGeometry>
        </mxCell>
        <mxCell id="4eEoRIjLkNq0XFfyR3C2-1" value="" style="endArrow=none;dashed=1;html=1;rounded=0;" edge="1" parent="1">
          <mxGeometry width="50" height="50" relative="1" as="geometry">
            <mxPoint x="160" y="120" as="sourcePoint" />
            <mxPoint x="1120" y="120" as="targetPoint" />
          </mxGeometry>
        </mxCell>
        <mxCell id="4eEoRIjLkNq0XFfyR3C2-3" value="" style="endArrow=none;dashed=1;html=1;rounded=0;" edge="1" parent="1">
          <mxGeometry width="50" height="50" relative="1" as="geometry">
            <mxPoint x="160" y="280" as="sourcePoint" />
            <mxPoint x="1120" y="280" as="targetPoint" />
          </mxGeometry>
        </mxCell>
        <mxCell id="4eEoRIjLkNq0XFfyR3C2-4" value="" style="endArrow=none;dashed=1;html=1;rounded=0;" edge="1" parent="1" source="4eEoRIjLkNq0XFfyR3C2-43">
          <mxGeometry width="50" height="50" relative="1" as="geometry">
            <mxPoint x="160" y="360" as="sourcePoint" />
            <mxPoint x="960" y="360" as="targetPoint" />
          </mxGeometry>
        </mxCell>
        <mxCell id="4eEoRIjLkNq0XFfyR3C2-5" value="" style="endArrow=none;dashed=1;html=1;rounded=0;" edge="1" parent="1">
          <mxGeometry width="50" height="50" relative="1" as="geometry">
            <mxPoint x="160" y="440" as="sourcePoint" />
            <mxPoint x="1120" y="440" as="targetPoint" />
          </mxGeometry>
        </mxCell>
        <mxCell id="4eEoRIjLkNq0XFfyR3C2-7" value="&lt;b&gt;&lt;font color=&quot;#00cc00&quot;&gt;Master&lt;/font&gt;&lt;/b&gt;" style="text;html=1;align=right;verticalAlign=middle;whiteSpace=wrap;rounded=0;" vertex="1" parent="1">
          <mxGeometry x="90" y="110" width="60" height="20" as="geometry" />
        </mxCell>
        <mxCell id="4eEoRIjLkNq0XFfyR3C2-8" value="&lt;b&gt;&lt;font color=&quot;#ff3333&quot;&gt;Hotfix&lt;/font&gt;&lt;/b&gt;" style="text;html=1;align=right;verticalAlign=middle;whiteSpace=wrap;rounded=0;" vertex="1" parent="1">
          <mxGeometry x="90" y="190" width="60" height="20" as="geometry" />
        </mxCell>
        <mxCell id="4eEoRIjLkNq0XFfyR3C2-9" value="&lt;b&gt;&lt;font&gt;Release&lt;/font&gt;&lt;/b&gt;" style="text;html=1;align=right;verticalAlign=middle;whiteSpace=wrap;rounded=0;fontColor=#FFD966;" vertex="1" parent="1">
          <mxGeometry x="90" y="270" width="60" height="20" as="geometry" />
        </mxCell>
        <mxCell id="4eEoRIjLkNq0XFfyR3C2-10" value="&lt;b&gt;&lt;font color=&quot;#ff9933&quot;&gt;Develop&lt;/font&gt;&lt;/b&gt;" style="text;html=1;align=right;verticalAlign=middle;whiteSpace=wrap;rounded=0;fontColor=#FFD966;" vertex="1" parent="1">
          <mxGeometry x="90" y="350" width="60" height="20" as="geometry" />
        </mxCell>
        <mxCell id="4eEoRIjLkNq0XFfyR3C2-11" value="&lt;b&gt;&lt;font color=&quot;#3399ff&quot;&gt;Feature&lt;/font&gt;&lt;/b&gt;" style="text;html=1;align=right;verticalAlign=middle;whiteSpace=wrap;rounded=0;fontColor=#FFD966;" vertex="1" parent="1">
          <mxGeometry x="90" y="430" width="60" height="20" as="geometry" />
        </mxCell>
        <mxCell id="4eEoRIjLkNq0XFfyR3C2-13" value="&lt;b&gt;&lt;font color=&quot;#3399ff&quot;&gt;Feature&lt;/font&gt;&lt;/b&gt;" style="text;html=1;align=right;verticalAlign=middle;whiteSpace=wrap;rounded=0;fontColor=#FFD966;" vertex="1" parent="1">
          <mxGeometry x="90" y="510" width="60" height="20" as="geometry" />
        </mxCell>
        <mxCell id="4eEoRIjLkNq0XFfyR3C2-16" value="1.&lt;b&gt;从 &lt;font color=&quot;#00cc00&quot;&gt;Master&lt;/font&gt; 创建 &lt;font color=&quot;#ff9933&quot;&gt;Develop&lt;/font&gt;&lt;/b&gt; 进行开发" style="rounded=0;orthogonalLoop=1;jettySize=auto;html=1;exitX=0.5;exitY=1;exitDx=0;exitDy=0;entryX=0.5;entryY=0;entryDx=0;entryDy=0;endArrow=open;endFill=0;strokeColor=#00CC00;strokeWidth=2;" edge="1" parent="1" source="4eEoRIjLkNq0XFfyR3C2-14" target="4eEoRIjLkNq0XFfyR3C2-15">
          <mxGeometry relative="1" as="geometry" />
        </mxCell>
        <mxCell id="4eEoRIjLkNq0XFfyR3C2-49" style="edgeStyle=orthogonalEdgeStyle;rounded=0;orthogonalLoop=1;jettySize=auto;html=1;exitX=1;exitY=0.5;exitDx=0;exitDy=0;entryX=0;entryY=0.5;entryDx=0;entryDy=0;strokeWidth=2;endArrow=open;endFill=0;strokeColor=#00CC00;" edge="1" parent="1" source="4eEoRIjLkNq0XFfyR3C2-14" target="4eEoRIjLkNq0XFfyR3C2-47">
          <mxGeometry relative="1" as="geometry" />
        </mxCell>
        <mxCell id="4eEoRIjLkNq0XFfyR3C2-14" value="&lt;b&gt;&lt;font color=&quot;#ffffff&quot;&gt;V0.1&lt;/font&gt;&lt;/b&gt;" style="rhombus;whiteSpace=wrap;html=1;strokeColor=#00CC00;strokeWidth=2;fillColor=#00CC00;" vertex="1" parent="1">
          <mxGeometry x="200" y="100" width="40" height="40" as="geometry" />
        </mxCell>
        <mxCell id="4eEoRIjLkNq0XFfyR3C2-19" style="edgeStyle=orthogonalEdgeStyle;rounded=0;orthogonalLoop=1;jettySize=auto;html=1;exitX=1;exitY=0.5;exitDx=0;exitDy=0;entryX=0;entryY=0.5;entryDx=0;entryDy=0;endArrow=open;endFill=0;strokeColor=#FF9933;strokeWidth=2;" edge="1" parent="1" source="4eEoRIjLkNq0XFfyR3C2-15" target="4eEoRIjLkNq0XFfyR3C2-18">
          <mxGeometry relative="1" as="geometry" />
        </mxCell>
        <mxCell id="4eEoRIjLkNq0XFfyR3C2-24" value="2.&lt;b&gt;从 &lt;font color=&quot;#ff9933&quot;&gt;Develop&lt;/font&gt; 分支创建 &lt;font color=&quot;#3399ff&quot;&gt;Feature&lt;/font&gt;&lt;/b&gt; 进行功能开发" style="rounded=0;orthogonalLoop=1;jettySize=auto;html=1;exitX=0.5;exitY=1;exitDx=0;exitDy=0;entryX=0.5;entryY=0;entryDx=0;entryDy=0;endArrow=open;endFill=0;strokeColor=#FF9933;strokeWidth=2;" edge="1" parent="1" source="4eEoRIjLkNq0XFfyR3C2-15" target="4eEoRIjLkNq0XFfyR3C2-23">
          <mxGeometry relative="1" as="geometry" />
        </mxCell>
        <mxCell id="4eEoRIjLkNq0XFfyR3C2-15" value="" style="rhombus;whiteSpace=wrap;html=1;strokeColor=#FF9933;strokeWidth=2;fillColor=#FF9933;" vertex="1" parent="1">
          <mxGeometry x="280" y="340" width="40" height="40" as="geometry" />
        </mxCell>
        <mxCell id="4eEoRIjLkNq0XFfyR3C2-22" style="edgeStyle=orthogonalEdgeStyle;rounded=0;orthogonalLoop=1;jettySize=auto;html=1;exitX=1;exitY=0.5;exitDx=0;exitDy=0;entryX=0;entryY=0.5;entryDx=0;entryDy=0;endArrow=open;endFill=0;strokeWidth=2;strokeColor=#FF9933;" edge="1" parent="1" source="4eEoRIjLkNq0XFfyR3C2-18" target="4eEoRIjLkNq0XFfyR3C2-36">
          <mxGeometry relative="1" as="geometry" />
        </mxCell>
        <mxCell id="4eEoRIjLkNq0XFfyR3C2-32" style="rounded=0;orthogonalLoop=1;jettySize=auto;html=1;exitX=0.5;exitY=1;exitDx=0;exitDy=0;entryX=0.5;entryY=0;entryDx=0;entryDy=0;endArrow=open;endFill=0;strokeWidth=2;strokeColor=#FF9933;" edge="1" parent="1" source="4eEoRIjLkNq0XFfyR3C2-18" target="4eEoRIjLkNq0XFfyR3C2-31">
          <mxGeometry relative="1" as="geometry" />
        </mxCell>
        <mxCell id="4eEoRIjLkNq0XFfyR3C2-18" value="" style="rhombus;whiteSpace=wrap;html=1;strokeColor=#FF9933;strokeWidth=2;fillColor=#FF9933;" vertex="1" parent="1">
          <mxGeometry x="400" y="340" width="40" height="40" as="geometry" />
        </mxCell>
        <mxCell id="4eEoRIjLkNq0XFfyR3C2-40" value="4.完成阶段开发后&lt;b&gt;从 &lt;font color=&quot;#ff9933&quot;&gt;Develop&lt;/font&gt; 创建 &lt;font color=&quot;#ffd966&quot;&gt;Release&lt;/font&gt;&lt;/b&gt;" style="rounded=0;orthogonalLoop=1;jettySize=auto;html=1;exitX=0.5;exitY=0;exitDx=0;exitDy=0;entryX=0.5;entryY=1;entryDx=0;entryDy=0;endArrow=open;endFill=0;strokeWidth=2;strokeColor=#FF9933;" edge="1" parent="1" source="4eEoRIjLkNq0XFfyR3C2-21" target="4eEoRIjLkNq0XFfyR3C2-39">
          <mxGeometry relative="1" as="geometry" />
        </mxCell>
        <mxCell id="4eEoRIjLkNq0XFfyR3C2-46" style="edgeStyle=orthogonalEdgeStyle;rounded=0;orthogonalLoop=1;jettySize=auto;html=1;exitX=1;exitY=0.5;exitDx=0;exitDy=0;entryX=0;entryY=0.5;entryDx=0;entryDy=0;endArrow=open;endFill=0;strokeWidth=2;strokeColor=#FF9933;" edge="1" parent="1" source="4eEoRIjLkNq0XFfyR3C2-21" target="4eEoRIjLkNq0XFfyR3C2-43">
          <mxGeometry relative="1" as="geometry" />
        </mxCell>
        <mxCell id="4eEoRIjLkNq0XFfyR3C2-21" value="" style="rhombus;whiteSpace=wrap;html=1;strokeColor=#FF9933;strokeWidth=2;fillColor=#FF9933;" vertex="1" parent="1">
          <mxGeometry x="600" y="340" width="40" height="40" as="geometry" />
        </mxCell>
        <mxCell id="4eEoRIjLkNq0XFfyR3C2-28" style="edgeStyle=orthogonalEdgeStyle;rounded=0;orthogonalLoop=1;jettySize=auto;html=1;exitX=1;exitY=0.5;exitDx=0;exitDy=0;entryX=0;entryY=0.5;entryDx=0;entryDy=0;endArrow=open;endFill=0;strokeWidth=2;strokeColor=#3399FF;" edge="1" parent="1" source="4eEoRIjLkNq0XFfyR3C2-23" target="4eEoRIjLkNq0XFfyR3C2-25">
          <mxGeometry relative="1" as="geometry" />
        </mxCell>
        <mxCell id="4eEoRIjLkNq0XFfyR3C2-23" value="" style="rhombus;whiteSpace=wrap;html=1;strokeColor=#3399FF;strokeWidth=2;fillColor=#3399FF;" vertex="1" parent="1">
          <mxGeometry x="320" y="500" width="40" height="40" as="geometry" />
        </mxCell>
        <mxCell id="4eEoRIjLkNq0XFfyR3C2-29" style="edgeStyle=orthogonalEdgeStyle;rounded=0;orthogonalLoop=1;jettySize=auto;html=1;exitX=1;exitY=0.5;exitDx=0;exitDy=0;entryX=0;entryY=0.5;entryDx=0;entryDy=0;endArrow=open;endFill=0;strokeWidth=2;strokeColor=#3399FF;" edge="1" parent="1" source="4eEoRIjLkNq0XFfyR3C2-25" target="4eEoRIjLkNq0XFfyR3C2-27">
          <mxGeometry relative="1" as="geometry" />
        </mxCell>
        <mxCell id="4eEoRIjLkNq0XFfyR3C2-25" value="" style="rhombus;whiteSpace=wrap;html=1;strokeColor=#3399FF;strokeWidth=2;fillColor=#3399FF;" vertex="1" parent="1">
          <mxGeometry x="480" y="500" width="40" height="40" as="geometry" />
        </mxCell>
        <mxCell id="4eEoRIjLkNq0XFfyR3C2-30" style="edgeStyle=orthogonalEdgeStyle;rounded=0;orthogonalLoop=1;jettySize=auto;html=1;exitX=1;exitY=0.5;exitDx=0;exitDy=0;endArrow=open;endFill=0;strokeColor=#3399FF;strokeWidth=2;entryX=0;entryY=0.5;entryDx=0;entryDy=0;" edge="1" parent="1" source="4eEoRIjLkNq0XFfyR3C2-27" target="4eEoRIjLkNq0XFfyR3C2-38">
          <mxGeometry relative="1" as="geometry">
            <mxPoint x="760" y="520" as="targetPoint" />
          </mxGeometry>
        </mxCell>
        <mxCell id="4eEoRIjLkNq0XFfyR3C2-27" value="" style="rhombus;whiteSpace=wrap;html=1;strokeColor=#3399FF;strokeWidth=2;fillColor=#3399FF;" vertex="1" parent="1">
          <mxGeometry x="600" y="500" width="40" height="40" as="geometry" />
        </mxCell>
        <mxCell id="4eEoRIjLkNq0XFfyR3C2-35" style="edgeStyle=orthogonalEdgeStyle;rounded=0;orthogonalLoop=1;jettySize=auto;html=1;exitX=1;exitY=0.5;exitDx=0;exitDy=0;endArrow=open;endFill=0;strokeColor=#3399FF;strokeWidth=2;" edge="1" parent="1" source="4eEoRIjLkNq0XFfyR3C2-31" target="4eEoRIjLkNq0XFfyR3C2-33">
          <mxGeometry relative="1" as="geometry" />
        </mxCell>
        <mxCell id="4eEoRIjLkNq0XFfyR3C2-31" value="" style="rhombus;whiteSpace=wrap;html=1;strokeColor=#3399FF;strokeWidth=2;fillColor=#3399FF;" vertex="1" parent="1">
          <mxGeometry x="440" y="420" width="40" height="40" as="geometry" />
        </mxCell>
        <mxCell id="4eEoRIjLkNq0XFfyR3C2-34" value="3.功能开发完成后&lt;b&gt;合并到 &lt;font color=&quot;#ff9933&quot;&gt;Develop&lt;/font&gt;&lt;/b&gt;" style="rounded=0;orthogonalLoop=1;jettySize=auto;html=1;exitX=0.5;exitY=0;exitDx=0;exitDy=0;entryX=0.5;entryY=1;entryDx=0;entryDy=0;endArrow=open;endFill=0;strokeWidth=2;strokeColor=#3399FF;" edge="1" parent="1" source="4eEoRIjLkNq0XFfyR3C2-33" target="4eEoRIjLkNq0XFfyR3C2-21">
          <mxGeometry relative="1" as="geometry" />
        </mxCell>
        <mxCell id="4eEoRIjLkNq0XFfyR3C2-33" value="" style="rhombus;whiteSpace=wrap;html=1;strokeColor=#3399FF;strokeWidth=2;fillColor=#3399FF;" vertex="1" parent="1">
          <mxGeometry x="560" y="420" width="40" height="40" as="geometry" />
        </mxCell>
        <mxCell id="4eEoRIjLkNq0XFfyR3C2-36" value="" style="rhombus;whiteSpace=wrap;html=1;strokeColor=#FF9933;strokeWidth=2;fillColor=#FF9933;" vertex="1" parent="1">
          <mxGeometry x="500" y="340" width="40" height="40" as="geometry" />
        </mxCell>
        <mxCell id="4eEoRIjLkNq0XFfyR3C2-37" style="edgeStyle=orthogonalEdgeStyle;rounded=0;orthogonalLoop=1;jettySize=auto;html=1;exitX=1;exitY=0.5;exitDx=0;exitDy=0;entryX=0;entryY=0.5;entryDx=0;entryDy=0;endArrow=open;endFill=0;strokeWidth=2;strokeColor=#FF9933;" edge="1" parent="1">
          <mxGeometry relative="1" as="geometry">
            <mxPoint x="540" y="359.71" as="sourcePoint" />
            <mxPoint x="600" y="359.71" as="targetPoint" />
          </mxGeometry>
        </mxCell>
        <mxCell id="4eEoRIjLkNq0XFfyR3C2-60" style="rounded=0;orthogonalLoop=1;jettySize=auto;html=1;exitX=0.5;exitY=0;exitDx=0;exitDy=0;entryX=0.5;entryY=1;entryDx=0;entryDy=0;endArrow=open;endFill=0;strokeWidth=2;strokeColor=#3399FF;" edge="1" parent="1" source="4eEoRIjLkNq0XFfyR3C2-38" target="4eEoRIjLkNq0XFfyR3C2-57">
          <mxGeometry relative="1" as="geometry" />
        </mxCell>
        <mxCell id="4eEoRIjLkNq0XFfyR3C2-42" value="5.测试" style="edgeStyle=orthogonalEdgeStyle;rounded=0;orthogonalLoop=1;jettySize=auto;html=1;exitX=1;exitY=0.5;exitDx=0;exitDy=0;entryX=0;entryY=0.5;entryDx=0;entryDy=0;endArrow=open;endFill=0;strokeColor=#FFD966;strokeWidth=2;" edge="1" parent="1" source="4eEoRIjLkNq0XFfyR3C2-39" target="4eEoRIjLkNq0XFfyR3C2-41">
          <mxGeometry relative="1" as="geometry" />
        </mxCell>
        <mxCell id="4eEoRIjLkNq0XFfyR3C2-39" value="" style="rhombus;whiteSpace=wrap;html=1;strokeColor=#FFD966;strokeWidth=2;fillColor=#FFD966;" vertex="1" parent="1">
          <mxGeometry x="640" y="260" width="40" height="40" as="geometry" />
        </mxCell>
        <mxCell id="4eEoRIjLkNq0XFfyR3C2-44" style="rounded=0;orthogonalLoop=1;jettySize=auto;html=1;exitX=0.5;exitY=1;exitDx=0;exitDy=0;entryX=0.5;entryY=0;entryDx=0;entryDy=0;strokeWidth=2;endArrow=open;endFill=0;strokeColor=#FFD966;" edge="1" parent="1" source="4eEoRIjLkNq0XFfyR3C2-41" target="4eEoRIjLkNq0XFfyR3C2-43">
          <mxGeometry relative="1" as="geometry" />
        </mxCell>
        <mxCell id="4eEoRIjLkNq0XFfyR3C2-52" value="6.同步" style="edgeLabel;html=1;align=center;verticalAlign=middle;resizable=0;points=[];" vertex="1" connectable="0" parent="4eEoRIjLkNq0XFfyR3C2-44">
          <mxGeometry x="0.0569" y="-2" relative="1" as="geometry">
            <mxPoint y="-6" as="offset" />
          </mxGeometry>
        </mxCell>
        <mxCell id="4eEoRIjLkNq0XFfyR3C2-41" value="" style="rhombus;whiteSpace=wrap;html=1;strokeColor=#FFD966;strokeWidth=2;fillColor=#FFD966;" vertex="1" parent="1">
          <mxGeometry x="760" y="260" width="40" height="40" as="geometry" />
        </mxCell>
        <mxCell id="4eEoRIjLkNq0XFfyR3C2-58" style="edgeStyle=orthogonalEdgeStyle;rounded=0;orthogonalLoop=1;jettySize=auto;html=1;exitX=1;exitY=0.5;exitDx=0;exitDy=0;entryX=0;entryY=0.5;entryDx=0;entryDy=0;strokeColor=#FF9933;strokeWidth=2;endArrow=open;endFill=0;" edge="1" parent="1" source="4eEoRIjLkNq0XFfyR3C2-43" target="4eEoRIjLkNq0XFfyR3C2-57">
          <mxGeometry relative="1" as="geometry" />
        </mxCell>
        <mxCell id="4eEoRIjLkNq0XFfyR3C2-43" value="" style="rhombus;whiteSpace=wrap;html=1;strokeColor=#FF9933;strokeWidth=2;fillColor=#FF9933;" vertex="1" parent="1">
          <mxGeometry x="800" y="340" width="40" height="40" as="geometry" />
        </mxCell>
        <mxCell id="4eEoRIjLkNq0XFfyR3C2-54" value="8.发现 Bug 创建 &lt;font color=&quot;#ff3333&quot;&gt;Hotfix&lt;/font&gt;" style="rounded=0;orthogonalLoop=1;jettySize=auto;html=1;exitX=0.5;exitY=1;exitDx=0;exitDy=0;entryX=0.5;entryY=0;entryDx=0;entryDy=0;endArrow=open;endFill=0;strokeWidth=2;strokeColor=#00CC00;" edge="1" parent="1" source="4eEoRIjLkNq0XFfyR3C2-47" target="4eEoRIjLkNq0XFfyR3C2-53">
          <mxGeometry relative="1" as="geometry" />
        </mxCell>
        <mxCell id="4eEoRIjLkNq0XFfyR3C2-47" value="&lt;b&gt;&lt;font color=&quot;#ffffff&quot;&gt;V1.0&lt;/font&gt;&lt;/b&gt;" style="rhombus;whiteSpace=wrap;html=1;strokeColor=#00CC00;strokeWidth=2;fillColor=#00CC00;" vertex="1" parent="1">
          <mxGeometry x="860" y="100" width="40" height="40" as="geometry" />
        </mxCell>
        <mxCell id="4eEoRIjLkNq0XFfyR3C2-48" style="rounded=0;orthogonalLoop=1;jettySize=auto;html=1;exitX=0.5;exitY=0;exitDx=0;exitDy=0;entryX=0.5;entryY=1;entryDx=0;entryDy=0;endArrow=open;endFill=0;strokeColor=#FFD966;strokeWidth=2;" edge="1" parent="1" source="4eEoRIjLkNq0XFfyR3C2-41" target="4eEoRIjLkNq0XFfyR3C2-47">
          <mxGeometry relative="1" as="geometry" />
        </mxCell>
        <mxCell id="4eEoRIjLkNq0XFfyR3C2-50" value="7.版本发布" style="edgeLabel;html=1;align=center;verticalAlign=middle;resizable=0;points=[];" vertex="1" connectable="0" parent="4eEoRIjLkNq0XFfyR3C2-48">
          <mxGeometry x="0.088" y="-2" relative="1" as="geometry">
            <mxPoint x="-36" y="34" as="offset" />
          </mxGeometry>
        </mxCell>
        <mxCell id="4eEoRIjLkNq0XFfyR3C2-56" value="10.版本更新" style="rounded=0;orthogonalLoop=1;jettySize=auto;html=1;exitX=0.5;exitY=0;exitDx=0;exitDy=0;entryX=0.5;entryY=1;entryDx=0;entryDy=0;endArrow=open;endFill=0;strokeWidth=2;strokeColor=#FF3333;" edge="1" parent="1" source="4eEoRIjLkNq0XFfyR3C2-53" target="4eEoRIjLkNq0XFfyR3C2-55">
          <mxGeometry relative="1" as="geometry" />
        </mxCell>
        <mxCell id="4eEoRIjLkNq0XFfyR3C2-59" value="9.同步" style="rounded=0;orthogonalLoop=1;jettySize=auto;html=1;exitX=0.5;exitY=1;exitDx=0;exitDy=0;entryX=0.5;entryY=0;entryDx=0;entryDy=0;strokeWidth=2;strokeColor=#FF3333;endArrow=open;endFill=0;" edge="1" parent="1" source="4eEoRIjLkNq0XFfyR3C2-53" target="4eEoRIjLkNq0XFfyR3C2-57">
          <mxGeometry x="-0.35" y="-3" relative="1" as="geometry">
            <mxPoint as="offset" />
          </mxGeometry>
        </mxCell>
        <mxCell id="4eEoRIjLkNq0XFfyR3C2-53" value="" style="rhombus;whiteSpace=wrap;html=1;strokeColor=#FF3333;strokeWidth=2;fillColor=#FF3333;" vertex="1" parent="1">
          <mxGeometry x="940" y="180" width="40" height="40" as="geometry" />
        </mxCell>
        <mxCell id="4eEoRIjLkNq0XFfyR3C2-55" value="&lt;b&gt;&lt;font color=&quot;#ffffff&quot;&gt;V1.1&lt;/font&gt;&lt;/b&gt;" style="rhombus;whiteSpace=wrap;html=1;strokeColor=#00CC00;strokeWidth=2;fillColor=#00CC00;" vertex="1" parent="1">
          <mxGeometry x="1060" y="100" width="40" height="40" as="geometry" />
        </mxCell>
        <mxCell id="4eEoRIjLkNq0XFfyR3C2-57" value="" style="rhombus;whiteSpace=wrap;html=1;strokeColor=#FF9933;strokeWidth=2;fillColor=#FF9933;" vertex="1" parent="1">
          <mxGeometry x="980" y="340" width="40" height="40" as="geometry" />
        </mxCell>
        <mxCell id="4eEoRIjLkNq0XFfyR3C2-38" value="" style="rhombus;whiteSpace=wrap;html=1;strokeColor=#3399FF;strokeWidth=2;fillColor=#3399FF;" vertex="1" parent="1">
          <mxGeometry x="870" y="500" width="40" height="40" as="geometry" />
        </mxCell>
        <mxCell id="4eEoRIjLkNq0XFfyR3C2-63" value="永远保持最新" style="text;html=1;align=left;verticalAlign=middle;whiteSpace=wrap;rounded=0;" vertex="1" parent="1">
          <mxGeometry x="1130" y="345" width="80" height="30" as="geometry" />
        </mxCell>
        <mxCell id="4eEoRIjLkNq0XFfyR3C2-64" value="版本发布，标记 Tag" style="text;html=1;align=left;verticalAlign=middle;whiteSpace=wrap;rounded=0;" vertex="1" parent="1">
          <mxGeometry x="1130" y="100" width="130" height="30" as="geometry" />
        </mxCell>
        <mxCell id="4eEoRIjLkNq0XFfyR3C2-65" value="从 Develop 中来，到 Develop 中去" style="text;html=1;align=left;verticalAlign=middle;whiteSpace=wrap;rounded=0;" vertex="1" parent="1">
          <mxGeometry x="1160" y="465" width="200" height="30" as="geometry" />
        </mxCell>
        <mxCell id="4eEoRIjLkNq0XFfyR3C2-66" value="" style="shape=curlyBracket;whiteSpace=wrap;html=1;rounded=1;flipH=1;labelPosition=right;verticalLabelPosition=middle;align=left;verticalAlign=middle;" vertex="1" parent="1">
          <mxGeometry x="1130" y="430" width="20" height="100" as="geometry" />
        </mxCell>
        <mxCell id="4eEoRIjLkNq0XFfyR3C2-67" value="发布前测试" style="text;html=1;align=left;verticalAlign=middle;whiteSpace=wrap;rounded=0;" vertex="1" parent="1">
          <mxGeometry x="1130" y="270" width="80" height="30" as="geometry" />
        </mxCell>
        <mxCell id="4eEoRIjLkNq0XFfyR3C2-68" value="线上 Bug 热补丁" style="text;html=1;align=left;verticalAlign=middle;whiteSpace=wrap;rounded=0;" vertex="1" parent="1">
          <mxGeometry x="1130" y="185" width="100" height="30" as="geometry" />
        </mxCell>
      </root>
    </mxGraphModel>
  </diagram>
</mxfile>
